<svg width="76" height="75" viewBox="0 0 76 75" fill="none" xmlns="http://www.w3.org/2000/svg">
<path d="M38.1829 16.7538L45.9176 7.29718C55.6086 7.82533 64.634 10.1348 72.8531 13.9068L72.3937 13.7162C69.8202 17.0837 66.3874 19.6961 62.4558 21.279L62.2964 21.3353C61.8401 16.8382 58.69 15.7413 48.6895 15.7413L38.186 75L27.6199 15.7288C17.682 15.7288 14.5319 16.8351 14.0725 21.329C10.1026 19.7757 6.62886 17.1736 4.02204 13.8006L3.98142 13.7475C11.7349 10.1598 20.7602 7.84408 30.2606 7.31906L30.4513 7.30968L38.186 16.7538H38.1829ZM38.1829 4.56582C38.5172 4.55957 38.911 4.55957 39.3048 4.55957C51.7022 4.55957 63.487 7.18468 74.1312 11.9099L73.5843 11.6942C74.3752 10.3662 75.0547 8.97495 75.6157 7.53469L75.6844 7.33781C64.5871 2.76574 51.7115 0.0781283 38.2141 0H38.1829C25.086 0.0534076 12.1221 2.62963 0 7.58782L0.681279 7.34093C1.38131 9.07538 2.08446 10.5129 2.87825 11.8974L2.78137 11.7161C12.9005 7.19093 24.7104 4.55644 37.1391 4.55644L38.2391 4.56269H38.1829V4.56582Z" fill="#333333"/>
</svg>
