<svg width="75" height="52" viewBox="0 0 75 52" fill="none" xmlns="http://www.w3.org/2000/svg">
<path d="M55.6315 15.2063C55.6315 15.2063 49.5502 34.2783 49.0533 35.8533C47.522 23.9003 45.9761 11.9492 44.4158 0C34.0533 0 28.5126 7.37503 25.5845 15.1594L17.5688 35.9002C17.522 34.4127 16.4438 15.3844 16.4438 15.3844C15.8063 5.8469 7.06878 0.0406252 0 0.0406252L8.55941 51.9158C19.4157 51.869 25.2689 44.5377 28.3345 36.7533C28.3345 36.7533 34.8658 19.8845 35.1345 19.1188C35.1814 19.8376 39.822 51.9127 39.822 51.9127C50.7221 51.9127 56.5784 45.0314 59.7284 37.5189L75.0003 0.04375C64.2347 0.04375 58.5596 7.37503 55.6315 15.2032V15.2063Z" fill="#333333"/>
</svg>
