<svg width="50" height="50" viewBox="0 0 50 50" fill="none" xmlns="http://www.w3.org/2000/svg">
<path d="M24.9999 0C11.25 0 0 11.25 0 24.9999C0 38.7499 11.25 49.9999 24.9999 49.9999C38.7499 49.9999 49.9999 38.7499 49.9999 24.9999C49.9999 11.25 38.878 0 24.9999 0ZM36.503 36.1218C36.0062 36.8749 35.1249 37.1187 34.3749 36.6187C28.4968 32.9968 21.1218 32.2437 12.3718 34.2468C11.4937 34.4999 10.75 33.8749 10.4969 33.1249C10.2437 32.2468 10.8687 31.5031 11.6187 31.2499C21.1218 29.1218 29.3718 29.9999 35.8655 34.003C36.7437 34.3749 36.8749 35.3718 36.503 36.1218ZM39.503 29.2468C38.878 30.1249 37.7562 30.4968 36.8749 29.8718C30.1281 25.7499 19.8718 24.4999 12.0031 26.9999C11.0062 27.2531 9.87498 26.7468 9.63123 25.7499C9.3781 24.7531 9.88435 23.6218 10.8812 23.3781C20.0031 20.625 31.2531 22 39.0062 26.7562C39.7499 27.1281 40.128 28.3781 39.503 29.2468ZM39.7468 22.2468C31.7499 17.5 18.3687 16.9937 10.7437 19.375C10.1636 19.5435 9.54074 19.4811 9.00549 19.201C8.47024 18.9208 8.06405 18.4446 7.87186 17.8718C7.49998 16.6218 8.24373 15.3718 9.37498 15C18.2531 12.3718 32.8718 12.8718 42.128 18.3781C43.2499 19.0031 43.6312 20.5062 43.0062 21.6312C42.3718 22.5 40.8812 22.8718 39.7468 22.2468Z" fill="#333333"/>
</svg>
