<svg width="5" height="21" viewBox="0 0 5 21" fill="none" xmlns="http://www.w3.org/2000/svg">
<g opacity="0.4">
<path d="M2.09997 4.19994C3.25975 4.19994 4.19994 3.25975 4.19994 2.09997C4.19994 0.940188 3.25975 0 2.09997 0C0.940188 0 0 0.940188 0 2.09997C0 3.25975 0.940188 4.19994 2.09997 4.19994Z" fill="#333333"/>
<path d="M2.09997 12.6002C3.25975 12.6002 4.19994 11.66 4.19994 10.5002C4.19994 9.34046 3.25975 8.40027 2.09997 8.40027C0.940188 8.40027 0 9.34046 0 10.5002C0 11.66 0.940188 12.6002 2.09997 12.6002Z" fill="#333333"/>
<path d="M2.09997 21C3.25975 21 4.19994 20.0598 4.19994 18.9C4.19994 17.7402 3.25975 16.8 2.09997 16.8C0.940188 16.8 0 17.7402 0 18.9C0 20.0598 0.940188 21 2.09997 21Z" fill="#333333"/>
</g>
</svg>
