<svg width="21" height="23" viewBox="0 0 21 23" fill="none" xmlns="http://www.w3.org/2000/svg">
<path d="M17.25 23C16.2917 23 15.4771 22.6646 14.8062 21.9937C14.1354 21.3229 13.8 20.5083 13.8 19.55C13.8 19.4158 13.8096 19.2767 13.8287 19.1325C13.8479 18.9884 13.8767 18.8592 13.915 18.745L5.8075 14.03C5.48167 14.3175 5.1175 14.5429 4.715 14.7062C4.3125 14.8695 3.89083 14.9508 3.45 14.95C2.49167 14.95 1.67708 14.6146 1.00625 13.9437C0.335417 13.2729 0 12.4583 0 11.5C0 10.5417 0.335417 9.72708 1.00625 9.05625C1.67708 8.38542 2.49167 8.05 3.45 8.05C3.89083 8.05 4.3125 8.13165 4.715 8.29495C5.1175 8.45825 5.48167 8.68327 5.8075 8.97L13.915 4.255C13.8767 4.14 13.8479 4.01082 13.8287 3.86745C13.8096 3.72408 13.8 3.58493 13.8 3.45C13.8 2.49167 14.1354 1.67708 14.8062 1.00625C15.4771 0.335417 16.2917 0 17.25 0C18.2083 0 19.0229 0.335417 19.6937 1.00625C20.3646 1.67708 20.7 2.49167 20.7 3.45C20.7 4.40833 20.3646 5.22292 19.6937 5.89375C19.0229 6.56458 18.2083 6.9 17.25 6.9C16.8092 6.9 16.3875 6.81873 15.985 6.6562C15.5825 6.49367 15.2183 6.26827 14.8925 5.98L6.785 10.695C6.82333 10.81 6.85208 10.9396 6.87125 11.0837C6.89042 11.2278 6.9 11.3666 6.9 11.5C6.9 11.6342 6.89042 11.7733 6.87125 11.9174C6.85208 12.0616 6.82333 12.1908 6.785 12.305L14.8925 17.02C15.2183 16.7325 15.5825 16.5075 15.985 16.3449C16.3875 16.1824 16.8092 16.1008 17.25 16.1C18.2083 16.1 19.0229 16.4354 19.6937 17.1062C20.3646 17.7771 20.7 18.5917 20.7 19.55C20.7 20.5083 20.3646 21.3229 19.6937 21.9937C19.0229 22.6646 18.2083 23 17.25 23Z" fill="#2CE1C6"/>
</svg>
