<svg width="18" height="23" viewBox="0 0 18 23" fill="none" xmlns="http://www.w3.org/2000/svg">
<path d="M17.7677 10.5665L9.8486 0.416116C9.74757 0.286464 9.61859 0.181634 9.47143 0.109546C9.32426 0.0374589 9.16275 0 8.9991 0C8.83545 0 8.67393 0.0374589 8.52677 0.109546C8.3796 0.181634 8.25063 0.286464 8.14959 0.416116L0.230478 10.5665C0.0811596 10.758 0 10.9945 0 11.238C0 11.4816 0.0811596 11.718 0.230478 11.9096L0.284472 11.9785C0.296028 11.9966 0.309288 12.0136 0.324067 12.0292L8.15319 22.0599C8.25423 22.1896 8.3832 22.2944 8.53037 22.3665C8.67754 22.4386 8.83905 22.4761 9.0027 22.4761C9.16635 22.4761 9.32786 22.4386 9.47503 22.3665C9.62219 22.2944 9.75117 22.1896 9.8522 22.0599L17.7713 11.9096C17.9201 11.7176 18.0006 11.4809 18 11.2374C17.9993 10.9939 17.9175 10.7576 17.7677 10.5665ZM10.079 4.23247L15.2192 10.8211L10.079 13.1775V4.23247ZM7.91922 13.1738L2.77899 10.8175L7.91922 4.23247V13.1738ZM7.91922 15.5637V18.2436L4.66608 14.0747L7.91922 15.5637ZM10.079 15.5637L13.3321 14.0747L10.079 18.2436V15.5637Z" fill="#2CE1C6"/>
</svg>
