<svg width="24" height="24" viewBox="0 0 24 24" fill="none" xmlns="http://www.w3.org/2000/svg">
<path d="M17.9543 5.61194C17.3077 5.05176 16.473 4.75725 15.6181 4.78767C14.7631 4.8181 13.9514 5.17121 13.3463 5.77594L6.56031 12.5599C6.42298 12.7073 6.25738 12.8255 6.07338 12.9075C5.88938 12.9895 5.69076 13.0336 5.48935 13.0371C5.28795 13.0407 5.08789 13.0036 4.90111 12.9282C4.71434 12.8527 4.54467 12.7405 4.40223 12.598C4.25979 12.4556 4.1475 12.2859 4.07206 12.0991C3.99662 11.9124 3.95957 11.7123 3.96312 11.5109C3.96668 11.3095 4.01076 11.1109 4.09275 10.9269C4.17473 10.7429 4.29293 10.5773 4.44031 10.4399L11.2243 3.65594C11.8203 3.05189 12.5308 2.57273 13.3142 2.24648C14.0976 1.92024 14.9382 1.75345 15.7868 1.75589C16.6354 1.75832 17.475 1.92991 18.2565 2.26064C19.0381 2.59137 19.7458 3.07459 20.3384 3.68205C20.9309 4.28951 21.3964 5.00901 21.7077 5.79849C22.0189 6.58797 22.1696 7.43158 22.151 8.27999C22.1324 9.12839 21.9448 9.96458 21.5992 10.7396C21.2536 11.5147 20.757 12.2131 20.1383 12.7939L10.6923 21.7859C9.96217 22.4983 8.97894 22.8915 7.95893 22.8789C6.93892 22.8663 5.96568 22.4491 5.25331 21.7189C4.54094 20.9888 4.14779 20.0056 4.16035 18.9856C4.17292 17.9656 4.59017 16.9923 5.32031 16.2799L13.8063 7.79194C13.9447 7.64874 14.1103 7.53455 14.2934 7.45602C14.4764 7.3775 14.6733 7.33621 14.8724 7.33457C15.0716 7.33294 15.2691 7.37098 15.4534 7.44649C15.6377 7.522 15.8051 7.63346 15.9459 7.77436C16.0867 7.91527 16.198 8.0828 16.2733 8.26718C16.3486 8.45156 16.3865 8.64909 16.3847 8.84826C16.3829 9.04743 16.3414 9.24424 16.2627 9.42721C16.184 9.61017 16.0696 9.77564 15.9263 9.91394L7.44631 18.4019C7.29795 18.5609 7.21652 18.771 7.21891 18.9884C7.22131 19.2059 7.30736 19.4141 7.45919 19.5697C7.61102 19.7254 7.81698 19.8167 8.0343 19.8245C8.25163 19.8324 8.46363 19.7563 8.62631 19.6119L18.0703 10.6199C18.412 10.2948 18.6819 9.90174 18.8628 9.4661C19.0436 9.03047 19.1314 8.56183 19.1205 8.09027C19.1095 7.61871 19.0002 7.15465 18.7993 6.72785C18.5985 6.30105 18.3107 5.92095 17.9543 5.61194Z" fill="white"/>
</svg>
