<svg width="36" height="36" viewBox="0 0 36 36" fill="none" xmlns="http://www.w3.org/2000/svg">
<path d="M33.0074 10.5H34.5074V25.5H33.0074V30C33.0074 30.8284 32.3358 31.5 31.5074 31.5H4.50732C3.6789 31.5 3.00732 30.8284 3.00732 30V6C3.00732 5.17158 3.6789 4.5 4.50732 4.5H31.5074C32.3358 4.5 33.0074 5.17158 33.0074 6V10.5ZM30.0074 25.5H21.0074C16.8653 25.5 13.5073 22.1421 13.5073 18C13.5073 13.8579 16.8653 10.5 21.0074 10.5H30.0074V7.5H6.00733V28.5H30.0074V25.5ZM31.5074 22.5V13.5H21.0074C18.522 13.5 16.5074 15.5147 16.5074 18C16.5074 20.4853 18.522 22.5 21.0074 22.5H31.5074ZM21.0074 16.5H25.5074V19.5H21.0074V16.5Z" fill="#9FD8CF"/>
</svg>
