<svg width="24" height="21" viewBox="0 0 24 21" fill="none" xmlns="http://www.w3.org/2000/svg">
<path d="M4.2 8.4V21H0V8.4H4.2ZM8.4 21C7.84304 21 7.3089 20.7787 6.91508 20.3849C6.52125 19.9911 6.3 19.457 6.3 18.9V8.4C6.3 7.8225 6.531 7.2975 6.9195 6.9195L13.8285 0L14.9415 1.113C15.225 1.3965 15.4035 1.785 15.4035 2.2155L15.372 2.5515L14.3745 7.35H21C21.557 7.35 22.0911 7.57125 22.4849 7.96508C22.8787 8.3589 23.1 8.89304 23.1 9.45V11.55C23.1 11.823 23.0475 12.075 22.953 12.3165L19.782 19.719C19.467 20.475 18.7215 21 17.85 21H8.4ZM8.4 18.9H17.8815L21 11.55V9.45H11.7705L12.957 3.864L8.4 8.4315V18.9Z" fill="white"/>
</svg>
