<svg width="375" height="50" viewBox="0 0 375 50" fill="none" xmlns="http://www.w3.org/2000/svg">
<circle cx="20.285" cy="24.672" r="2.74123" fill="#2D2D2D"/>
<circle cx="30.1539" cy="24.672" r="2.74123" fill="#2D2D2D"/>
<circle cx="40.0218" cy="24.672" r="2.74123" fill="#2D2D2D"/>
<circle cx="49.8907" cy="24.672" r="2.74123" fill="#2D2D2D"/>
<circle cx="59.7586" cy="24.672" r="2.74123" fill="#2D2D2D"/>
<circle cx="69.6275" cy="24.672" r="2.74123" fill="#2D2D2D"/>
<circle cx="79.4954" cy="24.672" r="2.74123" fill="#2D2D2D"/>
<circle cx="89.3643" cy="24.672" r="2.74123" fill="#2D2D2D"/>
<path d="M345.943 22.7456C349.154 22.7456 352.018 24.5504 353.416 27.4057C352.916 28.4394 352.213 29.3291 351.374 30.0493L352.568 31.2439C353.746 30.2018 354.678 28.897 355.263 27.4057C353.797 23.6861 350.179 21.0511 345.943 21.0511C344.867 21.0511 343.833 21.2205 342.858 21.534L344.256 22.932C344.807 22.8219 345.366 22.7456 345.943 22.7456ZM345.036 23.7116L346.79 25.4654C347.273 25.6773 347.663 26.067 347.874 26.55L349.628 28.3039C349.696 28.0158 349.747 27.7108 349.747 27.3973C349.755 25.296 348.044 23.5929 345.943 23.5929C345.629 23.5929 345.333 23.6353 345.036 23.7116ZM337.478 20.9409L339.749 23.2117C338.368 24.2962 337.275 25.7366 336.622 27.4057C338.088 31.1253 341.706 33.7604 345.943 33.7604C347.23 33.7604 348.468 33.5147 349.603 33.0656L352.501 35.9633L353.695 34.7687L338.673 19.7378L337.478 20.9409ZM343.833 27.2956L346.044 29.507C346.01 29.5155 345.976 29.524 345.943 29.524C344.773 29.524 343.824 28.575 343.824 27.4057C343.824 27.3634 343.833 27.3379 343.833 27.2956ZM340.952 24.4148L342.435 25.8976C342.24 26.3636 342.13 26.8719 342.13 27.4057C342.13 29.507 343.841 31.2185 345.943 31.2185C346.476 31.2185 346.985 31.1084 347.442 30.9135L348.273 31.7438C347.527 31.9472 346.748 32.0658 345.943 32.0658C342.731 32.0658 339.868 30.2611 338.47 27.4057C339.063 26.1941 339.927 25.1943 340.952 24.4148Z" fill="black"/>
<rect x="0.54712" y="0.54712" width="373.906" height="48.2478" rx="8.20681" stroke="#DADADA" stroke-width="1.09424"/>
</svg>
