<svg width="33" height="33" viewBox="0 0 33 33" fill="none" xmlns="http://www.w3.org/2000/svg">
<path d="M11.4835 4.38932L15.4295 0.443394C16.0207 -0.147798 16.9791 -0.147798 17.5704 0.443394L21.5163 4.38932H27.0967C27.9326 4.38932 28.6105 5.06709 28.6105 5.90314V11.4835L32.5564 15.4295C33.1476 16.0206 33.1476 16.9792 32.5564 17.5703L28.6105 21.5163V27.0967C28.6105 27.9327 27.9326 28.6105 27.0967 28.6105H21.5163L17.5704 32.5564C16.9791 33.1475 16.0207 33.1475 15.4295 32.5564L11.4835 28.6105H5.90314C5.06707 28.6105 4.38932 27.9327 4.38932 27.0967V21.5163L0.443394 17.5703C-0.147798 16.9792 -0.147798 16.0206 0.443394 15.4295L4.38932 11.4835V5.90314C4.38932 5.06709 5.06707 4.38932 5.90314 4.38932H11.4835ZM7.41696 7.41696V12.7376L3.65469 16.4999L7.41696 20.2622V25.5828H12.7376L16.4999 29.3451L20.2621 25.5828H25.5829V20.2622L29.345 16.4999L25.5829 12.7376V7.41696H20.2621L16.4999 3.65469L12.7376 7.41696H7.41696ZM16.4999 22.5552C13.1556 22.5552 10.4446 19.8441 10.4446 16.4999C10.4446 13.1556 13.1556 10.4446 16.4999 10.4446C19.8441 10.4446 22.5552 13.1556 22.5552 16.4999C22.5552 19.8441 19.8441 22.5552 16.4999 22.5552ZM16.4999 19.5276C18.172 19.5276 19.5276 18.1721 19.5276 16.4999C19.5276 14.8277 18.172 13.4723 16.4999 13.4723C14.8278 13.4723 13.4723 14.8277 13.4723 16.4999C13.4723 18.1721 14.8278 19.5276 16.4999 19.5276Z" fill="#9FD8CF"/>
</svg>
