<svg width="17" height="17" viewBox="0 0 17 17" fill="none" xmlns="http://www.w3.org/2000/svg">
<path fill-rule="evenodd" clip-rule="evenodd" d="M12.7787 10.54L17 14.8219L14.875 17L10.5453 12.7755C9.4533 13.455 8.19243 13.8143 6.90625 13.8125C3.09188 13.8125 0 10.7132 0 6.90625C0 3.09188 3.09931 0 6.90625 0C10.7206 0 13.8125 3.09931 13.8125 6.90625C13.8144 8.19034 13.4563 9.44923 12.7787 10.54ZM2.12181 6.85525C2.12181 9.49025 4.26169 11.6365 6.90306 11.6365C9.53806 11.6365 11.6843 9.49556 11.6843 6.85525C11.6843 4.22025 9.54338 2.074 6.90306 2.074C4.26806 2.074 2.12181 4.21388 2.12181 6.85525Z" fill="#ABABAB"/>
</svg>
