<svg width="21" height="21" viewBox="0 0 21 21" fill="none" xmlns="http://www.w3.org/2000/svg">
<path fill-rule="evenodd" clip-rule="evenodd" d="M5.83322 4.66658C5.83322 3.42892 6.32488 2.24196 7.20003 1.36681C8.07518 0.491656 9.26215 0 10.4998 0C11.7375 0 12.9244 0.491656 13.7996 1.36681C14.6747 2.24196 15.1664 3.42892 15.1664 4.66658C15.1664 5.90423 14.6747 7.09119 13.7996 7.96635C12.9244 8.8415 11.7375 9.33315 10.4998 9.33315C9.26215 9.33315 8.07518 8.8415 7.20003 7.96635C6.32488 7.09119 5.83322 5.90423 5.83322 4.66658ZM5.83322 11.6664C4.28615 11.6664 2.80245 12.281 1.70851 13.375C0.61457 14.4689 0 15.9526 0 17.4997C0 18.4279 0.368742 19.3181 1.02511 19.9745C1.68147 20.6309 2.57169 20.9996 3.49993 20.9996H17.4997C18.4279 20.9996 19.3181 20.6309 19.9745 19.9745C20.6309 19.3181 20.9996 18.4279 20.9996 17.4997C20.9996 15.9526 20.385 14.4689 19.2911 13.375C18.1971 12.281 16.7134 11.6664 15.1664 11.6664H5.83322Z" fill="#8C8C8C"/>
</svg>
