<svg width="100" height="60" viewBox="0 0 100 60" fill="none" xmlns="http://www.w3.org/2000/svg">
<path d="M28.1759 21.7085C28.1759 22.9459 28.3227 23.9396 28.5509 24.6709C28.8102 25.4021 29.154 26.202 29.6102 27.0645C29.764 27.2906 29.8487 27.5567 29.8539 27.8301C29.8539 28.1707 29.6414 28.4988 29.2196 28.8394L27.1197 30.2237C26.8706 30.4127 26.5696 30.5206 26.2572 30.5331C25.9166 30.5331 25.5885 30.3706 25.2635 30.0612C24.8088 29.5841 24.4055 29.0604 24.0604 28.4988C23.6862 27.8654 23.3441 27.2136 23.0355 26.5458C20.4324 29.605 17.1763 31.1362 13.2546 31.1362C10.4547 31.1362 8.2267 30.3394 6.59864 28.7426C4.97058 27.1301 4.14249 25.0146 4.14249 22.3459C4.14249 19.5304 5.1362 17.218 7.17049 15.4931C9.20478 13.7682 11.889 12.9057 15.3233 12.9057C16.4451 12.9057 17.6169 13.0026 18.8388 13.1651C20.0762 13.3276 21.3449 13.6057 22.6636 13.8963V11.4714C22.6636 8.94963 22.1417 7.1747 21.1012 6.14974C20.0418 5.12479 18.2544 4.61856 15.6826 4.61856C14.5264 4.61856 13.3234 4.7498 12.0859 5.04041C10.8671 5.33689 9.67054 5.71801 8.50481 6.18099C8.1142 6.35911 7.72359 6.49036 7.33298 6.6216C7.16291 6.67209 6.988 6.70456 6.81113 6.71847C6.33928 6.71847 6.11116 6.37786 6.11116 5.67789V4.04983C6.11116 3.52798 6.17678 3.12175 6.33928 2.89363C6.5835 2.58458 6.9031 2.34354 7.26736 2.19366C8.5973 1.52938 10.002 1.02686 11.4516 0.696846C13.1466 0.259647 14.8916 0.0463822 16.642 0.0624973C20.6137 0.0624973 23.4948 0.95621 25.3666 2.76551C27.1884 4.55606 28.1165 7.2747 28.1165 10.937V21.7116L28.1759 21.7085ZM14.6827 26.7708C15.7733 26.7708 16.9138 26.5739 18.1013 26.1677C19.3222 25.7547 20.4115 25.0246 21.2574 24.0521C21.7949 23.4178 22.2011 22.7178 22.398 21.921C22.5949 21.1241 22.723 20.146 22.723 19.0242V17.6243C21.715 17.3762 20.6935 17.1863 19.6637 17.0555C18.6273 16.9235 17.5836 16.8578 16.5389 16.8587C14.3077 16.8587 12.6828 17.2993 11.5922 18.193C10.486 19.0867 9.96412 20.3585 9.96412 22.0178C9.96412 23.5803 10.3547 24.7365 11.1859 25.5333C11.9828 26.3645 13.1515 26.7708 14.6827 26.7708ZM41.3909 30.3675C40.7878 30.3675 40.3816 30.2706 40.1223 30.0269C39.8629 29.83 39.6191 29.3582 39.4223 28.7426L31.6101 3.028C31.4573 2.59712 31.3586 2.14891 31.3164 1.69368C31.3164 1.1562 31.5757 0.862464 32.0976 0.862464H35.3693C36.0037 0.862464 36.4287 0.959336 36.6536 1.18745C36.9318 1.38432 37.1255 1.85617 37.3224 2.49052L42.9221 24.5115L48.1125 2.49052C48.275 1.8218 48.4719 1.38432 48.7313 1.18745C49.1314 0.942904 49.5978 0.829296 50.0656 0.862464H52.7186C53.353 0.862464 53.7936 0.959336 54.0529 1.18745C54.3123 1.38432 54.556 1.85617 54.6873 2.49052L59.9433 24.7708L65.6899 2.49052C65.9024 1.8218 66.1306 1.38432 66.3587 1.18745C66.7474 0.943163 67.2039 0.82931 67.6617 0.862464H70.7554C71.2928 0.862464 71.5866 1.12183 71.5866 1.69368C71.5866 1.85617 71.5553 2.01867 71.5209 2.23116C71.4668 2.51378 71.3906 2.79171 71.2928 3.06237L63.2682 28.7613C63.0713 29.43 62.8463 29.8675 62.5682 30.0644C62.1978 30.308 61.7572 30.4222 61.3151 30.3894H58.4496C57.8153 30.3894 57.3903 30.2925 57.1153 30.0644C56.8559 29.8363 56.6278 29.3957 56.4966 28.7301L51.3374 7.27782L46.2095 28.6957C46.047 29.3644 45.8501 29.8019 45.5751 30.03C45.3158 30.2581 44.8439 30.355 44.2408 30.355L41.3909 30.3675ZM84.1142 31.2643C82.3893 31.2643 80.6643 31.0518 79.005 30.6612C77.3457 30.2706 76.0426 29.83 75.1802 29.3269C74.6427 29.0332 74.2865 28.7082 74.1552 28.3988C74.0194 28.108 73.947 27.7917 73.9427 27.4707V25.7771C73.9427 25.0771 74.2208 24.7365 74.7083 24.7365C74.9052 24.7365 75.1146 24.7677 75.3114 24.8333C75.5083 24.9146 75.8145 25.0458 76.1426 25.174C77.2832 25.6771 78.5019 26.0677 79.805 26.3302C81.1393 26.6083 82.4268 26.7364 83.7611 26.7364C85.861 26.7364 87.489 26.3614 88.6109 25.6302C89.7171 24.9615 90.3858 23.7584 90.3514 22.4741C90.3642 21.612 90.0441 20.7781 89.4577 20.146C88.8546 19.5273 87.7172 18.9586 86.0891 18.4211L81.2706 16.9243C78.8456 16.1587 77.0395 15.0369 75.9489 13.5401C74.8748 12.1564 74.2862 10.4575 74.274 8.70589C74.274 7.30595 74.5833 6.08412 75.1864 5.01229C75.7895 3.95296 76.5864 3.028 77.5801 2.29365C78.6124 1.50859 79.7825 0.923555 81.0299 0.568725C82.3643 0.162492 83.7642 0 85.2298 0C85.961 0 86.7266 0.0312481 87.4609 0.131244C88.2265 0.228115 88.9265 0.359359 89.6264 0.506228C90.2764 0.668721 90.9108 0.831216 91.5139 1.02808C92.117 1.22495 92.5888 1.43432 92.9138 1.63118C93.3034 1.82995 93.6431 2.11408 93.9075 2.4624C94.1293 2.78715 94.238 3.1759 94.2169 3.5686V5.13104C94.2169 5.83101 93.9388 6.19037 93.4513 6.19037C93.0068 6.14487 92.5757 6.01213 92.1826 5.79976C90.1753 4.90755 87.998 4.46291 85.8016 4.49669C83.8986 4.49669 82.3986 4.79042 81.3737 5.42477C80.3331 6.05912 79.8112 7.01846 79.8112 8.38715C79.8112 9.31524 80.1362 10.1121 80.8049 10.7464C81.4737 11.3808 82.708 12.0151 84.4673 12.587L89.1858 14.0682C91.5795 14.8338 93.3201 15.9087 94.345 17.2743C95.37 18.6242 95.8762 20.1867 95.8762 21.9303C95.8762 23.3459 95.5668 24.649 95.0137 25.7864C94.4144 26.919 93.5891 27.9166 92.5888 28.7176C91.5482 29.5488 90.3264 30.1331 88.8952 30.5737C87.3497 31.0444 85.7423 31.2804 84.1267 31.2737L84.1142 31.2643ZM90.4108 47.423C79.4581 55.5133 63.5713 59.7913 49.9 59.7913C30.7445 59.7913 13.4765 52.7103 0.43952 40.9296C-0.585438 40.0015 0.342649 38.7328 1.5801 39.4796C15.6733 47.6511 33.0725 52.6134 51.0562 52.6134C63.1963 52.6134 76.527 50.0729 88.814 44.8981C90.6358 44.0513 92.1982 46.0856 90.4077 47.4199L90.4108 47.423ZM94.97 42.2326C93.57 40.4421 85.7079 41.3702 82.1611 41.8108C81.1018 41.942 80.9237 40.9983 81.9018 40.2983C88.1515 35.9204 98.4198 37.1735 99.626 38.639C100.813 40.1515 99.2854 50.4229 93.4419 55.3383C92.5482 56.1039 91.667 55.7133 92.0732 54.704C93.4075 51.4166 96.3699 44.0075 94.97 42.2326Z" fill="#333333"/>
</svg>
