<svg width="12" height="15" viewBox="0 0 12 15" fill="none" xmlns="http://www.w3.org/2000/svg">
<path d="M11.8453 6.9948L6.56582 0.275461C6.49846 0.189633 6.41248 0.120238 6.31436 0.0725174C6.21625 0.024797 6.10858 0 5.99947 0C5.89037 0 5.7827 0.024797 5.68458 0.0725174C5.58647 0.120238 5.50049 0.189633 5.43313 0.275461L0.153654 6.9948C0.0541071 7.1216 0 7.27814 0 7.43935C0 7.60056 0.0541071 7.75711 0.153654 7.88391L0.18965 7.9295C0.197355 7.94152 0.206194 7.95277 0.216048 7.9631L5.43553 14.6032C5.50289 14.6891 5.58887 14.7585 5.68698 14.8062C5.7851 14.8539 5.89277 14.8787 6.00187 14.8787C6.11098 14.8787 6.21865 14.8539 6.31677 14.8062C6.41488 14.7585 6.50086 14.6891 6.56822 14.6032L11.8477 7.88391C11.9469 7.75684 12.0006 7.60015 12.0002 7.43894C11.9997 7.27773 11.9452 7.12133 11.8453 6.9948ZM6.7194 2.80181L10.1463 7.16338L6.7194 8.72323V2.80181ZM5.27955 8.72082L1.85269 7.16098L5.27955 2.80181V8.72082ZM5.27955 10.3029V12.0769L3.11076 9.31717L5.27955 10.3029ZM6.7194 10.3029L8.88819 9.31717L6.7194 12.0769V10.3029Z" fill="#D27C2C"/>
</svg>
