<svg width="16" height="16" viewBox="0 0 16 16" fill="none" xmlns="http://www.w3.org/2000/svg">
<path d="M7.06253 15.2935L0.282517 8.5135C0.179789 8.41077 0.106852 8.29948 0.0637069 8.17963C0.0205613 8.05979 -0.000668798 7.93138 1.60513e-05 7.79441C1.60513e-05 7.65744 0.021589 7.52903 0.0647345 7.40918C0.10788 7.28933 0.180474 7.17804 0.282517 7.07531L7.06253 0.295303C7.25086 0.106969 7.48645 0.00869385 7.76929 0.000475653C8.05214 -0.00774254 8.29594 0.0905331 8.50071 0.295303C8.70617 0.483637 8.81335 0.719225 8.82225 1.00207C8.83115 1.28491 8.73253 1.52872 8.52639 1.73349L3.49275 6.76713H14.9725C15.2636 6.76713 15.5078 6.86575 15.705 7.06299C15.9022 7.26022 16.0005 7.50403 15.9998 7.79441C15.9998 8.08547 15.9015 8.32962 15.705 8.52685C15.5084 8.72409 15.2643 8.82237 14.9725 8.82168H3.49275L8.52639 13.8553C8.71473 14.0437 8.81335 14.2834 8.82225 14.5744C8.83115 14.8655 8.73253 15.1052 8.52639 15.2935C8.33806 15.499 8.09836 15.6017 7.8073 15.6017C7.51624 15.6017 7.26798 15.499 7.06253 15.2935Z" fill="black"/>
</svg>
