<svg width="12" height="20" viewBox="0 0 12 20" fill="none" xmlns="http://www.w3.org/2000/svg">
<path d="M0.395257 19.6047C0.131752 19.3412 0 19.0292 0 18.6688C0 18.3083 0.131752 17.9967 0.395257 17.7339L8.11595 10.0132L0.368907 2.26614C0.122969 2.0202 0 1.71278 0 1.34387C0 0.974967 0.131752 0.658762 0.395257 0.395257C0.658762 0.131752 0.970751 0 1.33123 0C1.6917 0 2.00334 0.131752 2.26614 0.395257L11.1199 9.27536C11.2253 9.38076 11.3001 9.49495 11.3444 9.61792C11.3887 9.74089 11.4105 9.87264 11.4098 10.0132C11.4098 10.1537 11.3876 10.2855 11.3434 10.4084C11.2991 10.5314 11.2246 10.6456 11.1199 10.751L2.23979 19.6311C1.99385 19.877 1.69065 20 1.33017 20C0.969697 20 0.658059 19.8682 0.395257 19.6047Z" fill="#333333"/>
</svg>
